<svg>

<symbol id="Behance" width="41" height="41" viewBox="0 0 41 41" fill="none" xmlns="http://www.w3.org/2000/svg">
<g clip-path="url(#clip0_202_98)">
<path d="M35.0281 0.216797H6.66832C3.42845 0.216797 0.792679 2.84528 0.792679 6.07617V34.3574C0.792679 37.5883 3.42845 40.2168 6.66832 40.2168H35.0281C38.2679 40.2168 40.9037 37.5883 40.9037 34.3574V6.07617C40.9037 2.84528 38.2679 0.216797 35.0281 0.216797ZM38.5535 34.3574C38.5535 36.2959 36.9719 37.873 35.0281 37.873H6.66832C4.72446 37.873 3.14293 36.2959 3.14293 34.3574V6.07617C3.14293 4.1377 4.72446 2.56055 6.66832 2.56055H35.0281C36.9719 2.56055 38.5535 4.1377 38.5535 6.07617V34.3574Z" fill="#070707" stroke="#070707" stroke-width="0.5"/>
<path d="M19.6731 16.7012C19.6731 14.1163 17.5646 12.0137 14.9726 12.0137H7.92178V28.4199H14.9726C17.5646 28.4199 19.6731 26.3173 19.6731 23.7324C19.6731 22.3335 19.0546 21.0765 18.0765 20.2168C19.0546 19.3571 19.6731 18.1001 19.6731 16.7012ZM17.3228 23.7324C17.3228 25.0248 16.2686 26.0762 14.9726 26.0762H10.272V21.3887H14.9726C16.2686 21.3887 17.3228 22.44 17.3228 23.7324ZM10.272 19.0449V14.3574H14.9726C16.2686 14.3574 17.3228 15.4088 17.3228 16.7012C17.3228 17.9936 16.2686 19.0449 14.9726 19.0449H10.272Z" fill="#070707" stroke="#070707" stroke-width="0.5"/>
<path d="M27.899 16.7012C24.6591 16.7012 22.0233 19.3297 22.0233 22.5605C22.0233 25.7914 24.6591 28.4199 27.899 28.4199C29.99 28.4199 31.94 27.2978 32.9878 25.4911L30.9534 24.3174C30.3242 25.4023 29.1537 26.0762 27.899 26.0762C26.3667 26.0762 25.06 25.0966 24.5749 23.7324H33.7746V22.5605C33.7746 19.3297 31.1388 16.7012 27.899 16.7012ZM24.5749 21.3887C25.06 20.0245 26.3667 19.0449 27.899 19.0449C29.4312 19.0449 30.7379 20.0245 31.223 21.3887H24.5749Z" fill="#070707" stroke="#070707" stroke-width="0.5"/>
<path d="M23.1985 12.0137H32.5995V14.3574H23.1985V12.0137Z" fill="#070707" stroke="#070707" stroke-width="0.5"/>
</g>
<defs>
<clipPath id="clip0_202_98">
<rect width="40.111" height="40" fill="white" transform="translate(0.792679 0.216797)"/>
</clipPath>
</defs>
</symbol>


<symbol id="Dribble" width="40" height="40" viewBox="0 0 40 40" fill="none" xmlns="http://www.w3.org/2000/svg">
<path d="M30.3717 7.11869L30.6775 6.73445L30.2988 6.42181C27.3834 4.01466 23.6808 2.57677 19.6299 2.57677C18.2107 2.57677 16.8348 2.77559 15.532 3.1013L14.8049 3.28309L15.252 3.88464C16.6426 5.75551 18.6403 8.58108 21.0327 13.0064L21.2393 13.3886L21.6466 13.2373C26.1739 11.5563 28.8868 8.98483 30.3717 7.11869ZM13.0714 4.36091L12.8264 4.03813L12.4599 4.21102C7.96373 6.33185 4.55736 10.3827 3.21271 15.3296L3.04663 15.9406L3.67947 15.9605C6.15537 16.0385 12.0736 15.9218 18.6312 14.165L19.2497 13.9993L18.939 13.4394C16.3956 8.85573 14.2566 5.92219 13.0714 4.36091ZM32.5252 8.6199L32.1375 8.15926L31.7559 8.62499C30.0999 10.6462 27.2247 13.2715 22.6723 15.0529L22.166 15.251L22.4057 15.7389C23.3872 17.7371 24.3394 19.8664 25.207 22.1658L25.3499 22.5447L25.7503 22.4836C29.0435 21.9807 32.0877 21.9807 34.3871 22.1608C34.9462 22.2072 35.307 22.2593 35.7269 22.3199C35.8153 22.3327 35.9064 22.3459 36.0025 22.3594L36.5145 22.4317L36.5695 21.9175C36.6369 21.2869 36.6757 20.6536 36.6757 19.999C36.6757 15.6455 35.0984 11.677 32.5252 8.6199ZM20.3782 16.2472L20.1931 15.876L19.7941 15.9894C12.0809 18.1807 5.28616 18.1138 3.17011 18.0284L2.68828 18.0089L2.6514 18.4897L2.64882 18.5233C2.61226 18.9999 2.57473 19.4889 2.57473 20.0086C2.57473 25.2424 4.8391 29.9144 8.41004 33.1113L8.78284 33.4451L9.11632 33.072C10.0114 32.0707 11.212 30.7954 12.6717 29.4642L12.6736 29.4624C15.4199 26.9307 18.9533 24.2519 22.8023 23.0831L23.3192 22.9261L23.1229 22.4229C22.2613 20.2152 21.3337 18.163 20.3782 16.2472ZM29.8678 24.1434L29.8624 24.1436C28.8512 24.1924 27.7749 24.2899 26.6804 24.4359L26.0856 24.5152L26.271 25.0859C27.1947 27.9298 27.9588 30.9423 28.4524 34.0761L28.5767 34.865L29.2321 34.4087C32.4181 32.1901 34.8282 28.8931 35.9509 25.0227L36.1161 24.4531L35.5268 24.3866C34.0667 24.2217 32.2154 24.0555 29.8678 24.1434ZM24.2117 25.3287L24.0581 24.8753L23.5985 25.009C20.2171 25.9929 16.6803 28.5441 13.9999 31.0044C12.7046 32.183 11.6586 33.3018 10.8191 34.2183L10.4064 34.6688L10.9297 34.9842C13.4752 36.5186 16.4312 37.4213 19.6205 37.4213C22.0142 37.4213 24.2719 36.9156 26.3338 36.0246L26.6818 35.8741L26.6309 35.4984C26.1466 31.9246 25.2924 28.5185 24.2117 25.3287ZM0.575806 19.999C0.575806 9.24581 9.14305 0.5 19.6299 0.5C30.1168 0.5 38.6841 9.24581 38.6841 19.999C38.6841 30.7522 30.1168 39.498 19.6299 39.498C9.14305 39.498 0.575806 30.7522 0.575806 19.999Z" fill="#070707" stroke="#070707"/>
</symbol>


<symbol id="Instagram" width="40" height="40" viewBox="0 0 40 40" fill="none" xmlns="http://www.w3.org/2000/svg">
<path d="M11.8743 0.50961H12.3743V0.5H28.2791C34.2437 0.5 39.1261 5.48469 39.1261 11.612V28.386C39.1261 34.5136 34.2434 39.498 28.2885 39.498H11.8743C5.90839 39.498 1.01786 34.5216 1.01786 28.4052V11.6216C1.01786 5.49485 5.90919 0.50961 11.8743 0.50961ZM3.02619 11.6303V11.6312V28.4149C3.02619 33.401 6.95375 37.4316 11.8743 37.4316H28.2885C33.1917 37.4316 37.1178 33.3995 37.1178 28.3956V11.6216C37.1178 6.6174 33.1913 2.58565 28.2791 2.58565H11.8743C6.96153 2.58565 3.03611 6.61773 3.02619 11.6303ZM31.1105 7.6997C31.1105 7.10977 31.5646 6.66168 32.1147 6.66168C32.6648 6.66168 33.1189 7.10977 33.1189 7.6997C33.1189 8.28963 32.6648 8.73772 32.1147 8.73772C31.5646 8.73772 31.1105 8.28963 31.1105 7.6997ZM10.0522 20.0038C10.0522 14.3481 14.5769 9.73772 20.0814 9.73772C25.5858 9.73772 30.1105 14.3481 30.1105 20.0038C30.1105 25.6596 25.5858 30.2699 20.0814 30.2699C14.5769 30.2699 10.0522 25.6596 10.0522 20.0038ZM28.1022 20.0038C28.1022 15.4702 24.542 11.8137 20.0814 11.8137C15.6208 11.8137 12.0606 15.4702 12.0606 20.0038C12.0606 24.5374 15.6208 28.1939 20.0814 28.1939C24.542 28.1939 28.1022 24.5374 28.1022 20.0038Z" fill="#070707" stroke="#070707"/>
</symbol>


<symbol id="Close" width="23" height="23" viewBox="0 0 23 23" fill="none" xmlns="http://www.w3.org/2000/svg">
<rect x="2.82837" width="27.3715" height="4" transform="rotate(45 2.82837 0)" fill="#828282"/>
<rect x="0.141357" y="19.5566" width="27.3715" height="4" transform="rotate(-45 0.141357 19.5566)" fill="#828282"/>
</symbol>



<symbol id="Nav" width="33" height="20" viewBox="0 0 33 20" fill="none" xmlns="http://www.w3.org/2000/svg">
<rect width="33" height="4" fill="black"/>
<rect y="8" width="33" height="4" fill="black"/>
<rect y="16" width="33" height="4" fill="black"/>
</symbol>

<symbol id="browser" width="68" height="68" viewBox="0 0 68 68" fill="none" xmlns="http://www.w3.org/2000/svg">
<g clip-path="url(#clip0_5_105)">
<rect x="46" y="27" width="12" height="30" fill="#FFD645"/>
<rect x="11" y="43" width="27" height="14" fill="#FFD645"/>
<rect x="11" y="27" width="27" height="6" fill="#FFD645"/>
<path d="M62.0234 0H5.97656C2.68109 0 0 2.68109 0 5.97656V62.0234C0 65.3189 2.68109 68 5.97656 68H62.0234C65.3189 68 68 65.3189 68 62.0234V5.97656C68 2.68109 65.3189 0 62.0234 0ZM3.98438 5.97656C3.98438 4.87807 4.87807 3.98438 5.97656 3.98438H15.9375V15.9375H3.98438V5.97656ZM64.0156 62.0234C64.0156 63.1219 63.1219 64.0156 62.0234 64.0156H5.97656C4.87807 64.0156 3.98438 63.1219 3.98438 62.0234V19.9219H64.0156V62.0234ZM64.0156 15.9375H19.9219V3.98438H62.0234C63.1219 3.98438 64.0156 4.87807 64.0156 5.97656V15.9375Z" fill="black"/>
<path d="M58.0391 7.96875H54.0547C52.9545 7.96875 52.0625 8.86072 52.0625 9.96094C52.0625 11.0612 52.9545 11.9531 54.0547 11.9531H58.0391C59.1393 11.9531 60.0312 11.0612 60.0312 9.96094C60.0312 8.86072 59.1393 7.96875 58.0391 7.96875Z" fill="black"/>
<path d="M45.9531 7.96875H41.9688C40.8685 7.96875 39.9766 8.86072 39.9766 9.96094C39.9766 11.0612 40.8685 11.9531 41.9688 11.9531H45.9531C47.0533 11.9531 47.9453 11.0612 47.9453 9.96094C47.9453 8.86072 47.0533 7.96875 45.9531 7.96875Z" fill="black"/>
<path d="M34 7.96875H30.0156C28.9154 7.96875 28.0234 8.86072 28.0234 9.96094C28.0234 11.0612 28.9154 11.9531 30.0156 11.9531H34C35.1002 11.9531 35.9922 11.0612 35.9922 9.96094C35.9922 8.86072 35.1002 7.96875 34 7.96875Z" fill="black"/>
<path d="M37.9844 24.0391H9.96094C8.86072 24.0391 7.96875 24.931 7.96875 26.0312V34C7.96875 35.1002 8.86072 35.9922 9.96094 35.9922H37.9844C39.0846 35.9922 39.9766 35.1002 39.9766 34V26.0312C39.9766 24.931 39.0846 24.0391 37.9844 24.0391ZM35.9922 32.0078H11.9531V28.0234H35.9922V32.0078Z" fill="black"/>
<path d="M58.0391 24.0391H45.9531C44.8529 24.0391 43.9609 24.931 43.9609 26.0312V58.0391C43.9609 59.1393 44.8529 60.0312 45.9531 60.0312H58.0391C59.1393 60.0312 60.0312 59.1393 60.0312 58.0391V26.0312C60.0312 24.931 59.1393 24.0391 58.0391 24.0391ZM56.0469 56.0469H47.9453V28.0234H56.0469V56.0469Z" fill="black"/>
<path d="M37.9844 39.9766H9.96094C8.86072 39.9766 7.96875 40.8685 7.96875 41.9688V58.0391C7.96875 59.1393 8.86072 60.0312 9.96094 60.0312H37.9844C39.0846 60.0312 39.9766 59.1393 39.9766 58.0391V41.9688C39.9766 40.8685 39.0846 39.9766 37.9844 39.9766ZM35.9922 56.0469H11.9531V43.9609H35.9922V56.0469Z" fill="black"/>
</g>
<defs>
<clipPath id="clip0_5_105">
<rect width="68" height="68" fill="white"/>
</clipPath>
</defs>
</symbol>


<symbol id="graphic" width="68" height="68" viewBox="0 0 68 68" fill="none" xmlns="http://www.w3.org/2000/svg">
<g clip-path="url(#clip0_5_30)">
<path d="M30.5 24L39.5933 36H21.4067L30.5 24Z" fill="#FFD645"/>
<path d="M42 17L54.9904 36.5H29.0096L42 17Z" fill="#FFD645"/>
<path d="M66.0078 47.9453H1.99219C0.891969 47.9453 0 48.8373 0 49.9375V66.0078C0 67.108 0.891969 68 1.99219 68H66.0078C67.108 68 68 67.108 68 66.0078V49.9375C68 48.8373 67.108 47.9453 66.0078 47.9453ZM64.0156 64.0156H59.8984V57.9062C59.8984 56.806 59.0065 55.9141 57.9062 55.9141C56.806 55.9141 55.9141 56.806 55.9141 57.9062V64.0156H51.9297V61.8906C51.9297 60.7904 51.0377 59.8984 49.9375 59.8984C48.8373 59.8984 47.9453 60.7904 47.9453 61.8906V64.0156H43.9609V57.9062C43.9609 56.806 43.069 55.9141 41.9688 55.9141C40.8685 55.9141 39.9766 56.806 39.9766 57.9062V64.0156H35.9922V61.8906C35.9922 60.7904 35.1002 59.8984 34 59.8984C32.8998 59.8984 32.0078 60.7904 32.0078 61.8906V64.0156H28.0234V57.9062C28.0234 56.806 27.1315 55.9141 26.0312 55.9141C24.931 55.9141 24.0391 56.806 24.0391 57.9062V64.0156H20.0547V61.8906C20.0547 60.7904 19.1627 59.8984 18.0625 59.8984C16.9623 59.8984 16.0703 60.7904 16.0703 61.8906V64.0156H12.0859V57.9062C12.0859 56.806 11.194 55.9141 10.0938 55.9141C8.99353 55.9141 8.10156 56.806 8.10156 57.9062V64.0156H3.98438V51.9297H64.0156V64.0156Z" fill="black"/>
<path d="M66.0078 12.0859C67.108 12.0859 68 11.194 68 10.0938V1.99219C68 0.891969 67.108 0 66.0078 0H57.9062C56.806 0 55.9141 0.891969 55.9141 1.99219V3.98438H12.0859V1.99219C12.0859 0.891969 11.194 0 10.0938 0H1.99219C0.891969 0 0 0.891969 0 1.99219V10.0938C0 11.194 0.891969 12.0859 1.99219 12.0859H3.98438V32.0078H1.99219C0.891969 32.0078 0 32.8998 0 34V41.9688C0 43.069 0.891969 43.9609 1.99219 43.9609H10.0938C11.194 43.9609 12.0859 43.069 12.0859 41.9688V39.9766C13.6386 39.9766 54.4444 39.9766 55.9141 39.9766V41.9688C55.9141 43.069 56.806 43.9609 57.9062 43.9609H66.0078C67.108 43.9609 68 43.069 68 41.9688V34C68 32.8998 67.108 32.0078 66.0078 32.0078H64.0156V12.0859H66.0078ZM3.98438 3.98438H8.10156V8.10156H3.98438V3.98438ZM8.10156 39.9766H3.98438V35.9922H8.10156V39.9766ZM22.0469 35.9922L30.0156 25.3672L37.9844 35.9922H22.0469ZM42.9648 35.9922L35.9707 26.6668L41.9688 17.6696L54.1838 35.9922H42.9648ZM56.6269 32.4739L43.6264 12.973C42.8403 11.794 41.1003 11.7892 40.3111 12.973L33.4355 23.2864L31.6094 20.8516C30.8124 19.7889 29.2173 19.7911 28.4219 20.8516L17.0664 35.9922H12.0859V34C12.0859 32.8998 11.194 32.0078 10.0938 32.0078H7.96875V12.0859H10.0938C11.194 12.0859 12.0859 11.194 12.0859 10.0938V7.96875H55.9141V10.0938C55.9141 11.194 56.806 12.0859 57.9062 12.0859H60.0312V32.0078H57.9062C57.419 32.0078 56.9731 32.1833 56.6269 32.4739ZM64.0156 39.9766H59.8984V35.9922H64.0156V39.9766ZM59.8984 8.10156V3.98438H64.0156V8.10156H59.8984Z" fill="black"/>
<path d="M18.0625 12.0859C14.767 12.0859 12.0859 14.767 12.0859 18.0625C12.0859 21.358 14.767 24.0391 18.0625 24.0391C21.358 24.0391 24.0391 21.358 24.0391 18.0625C24.0391 14.767 21.358 12.0859 18.0625 12.0859ZM18.0625 20.0547C16.964 20.0547 16.0703 19.161 16.0703 18.0625C16.0703 16.964 16.964 16.0703 18.0625 16.0703C19.161 16.0703 20.0547 16.964 20.0547 18.0625C20.0547 19.161 19.161 20.0547 18.0625 20.0547Z" fill="black"/>
</g>
<defs>
<clipPath id="clip0_5_30">
<rect width="68" height="68" fill="white"/>
</clipPath>
</defs>
</symbol>


<symbol id="startup" width="68" height="68" viewBox="0 0 68 68" fill="none" xmlns="http://www.w3.org/2000/svg">
<g clip-path="url(#clip0_5_83)">
<path d="M24.5 22.5L18 26.5V35.5L19.5 37L24.5 34" stroke="black"/>
<path d="M24 22.5L24.5 34L22.5 35L18 37.5L17.5 35L18 26.5L24 22.5Z" fill="#FFD645" stroke="black"/>
<path d="M26 31.5L27.5 12.5L33.5 2L37 4L44 21.5L49 27.5V38L44 35H38.5L42 45H26L29 35L26 31.5Z" fill="#FFD645" stroke="black"/>
<path d="M62.0234 7.96917H40.9753C40.9096 7.96917 40.8446 7.97276 40.7805 7.979C39.3922 5.24798 37.5922 2.76744 35.4087 0.584C34.6309 -0.194016 33.3694 -0.194016 32.5914 0.584C30.408 2.76744 28.6079 5.24811 27.2197 7.97913C27.1554 7.97276 27.0904 7.96917 27.0247 7.96917H5.97656C2.68109 7.96917 0 10.6504 0 13.9457V49.8051C0 53.1006 2.68109 55.7817 5.97656 55.7817H23.2863L20.6012 64.0161H18.0625C16.9623 64.0161 16.0703 64.908 16.0703 66.0082C16.0703 67.1085 16.9623 68.0004 18.0625 68.0004C18.3644 68.0004 49.6526 68.0004 49.9375 68.0004C51.0377 68.0004 51.9297 67.1085 51.9297 66.0082C51.9297 64.908 51.0377 64.0161 49.9375 64.0161H47.3989L44.7139 55.7817H62.0234C65.3189 55.7817 68 53.1006 68 49.8051V13.9457C68 10.6504 65.3189 7.96917 62.0234 7.96917ZM34 4.92843C35.6119 6.82433 36.9171 8.92316 37.8926 11.1628C36.6693 11.6821 35.3482 11.9535 34 11.9535C32.6518 11.9535 31.3307 11.6821 30.1074 11.1626C31.0829 8.92316 32.3881 6.82446 34 4.92843ZM28.0234 21.9146C28.0234 19.721 28.1139 17.6679 28.8119 14.9386C30.4516 15.5957 32.2094 15.9379 34 15.9379C35.7906 15.9379 37.5484 15.5957 39.1881 14.9385C39.878 17.6363 39.9766 19.6965 39.9766 21.9146V31.8756C38.7668 31.8756 29.9717 31.8756 28.0234 31.8756V21.9146ZM39.2048 43.8286H28.7953L31.4516 35.8598H36.5485L39.2048 43.8286ZM3.98438 13.9457C3.98438 12.8472 4.87807 11.9535 5.97656 11.9535H25.5525C24.6658 14.5931 24.167 17.3282 24.062 20.1186C19.5096 21.0354 16.0703 25.0648 16.0703 29.8834V37.8521C16.0703 38.5426 16.4278 39.1838 17.0151 39.5468C17.6036 39.9106 18.3372 39.9422 18.9534 39.6341L26.5015 35.8598H27.2515L24.5953 43.8286H3.98438V13.9457ZM24.0391 24.2481V32.6364L20.0547 34.6288V29.8834C20.0547 27.286 21.72 25.0702 24.0391 24.2481ZM24.792 64.0161L27.4772 55.7817H40.5231L43.2082 64.0161H24.792ZM64.0156 49.8051C64.0156 50.9036 63.1219 51.7973 62.0234 51.7973C61.404 51.7973 6.29173 51.7973 5.97656 51.7973C4.87807 51.7973 3.98438 50.9036 3.98438 49.8051V47.8129C6.16436 47.8129 61.7099 47.8129 64.0156 47.8129V49.8051ZM64.0156 43.8286H43.4047L40.7485 35.8598H41.4985L49.0466 39.6339C49.6631 39.9422 50.3965 39.9103 50.9849 39.5467C51.5722 39.1837 51.9297 38.5425 51.9297 37.852V29.8832C51.9297 25.0648 48.4904 21.0353 43.938 20.1186C43.8332 17.3281 43.3342 14.5931 42.4475 11.9535H62.0234C63.1219 11.9535 64.0156 12.8472 64.0156 13.9457V43.8286ZM43.9609 32.6364V24.2481C46.28 25.0704 47.9453 27.2861 47.9453 29.8834V34.6286L43.9609 32.6364Z" fill="black"/>
<path d="M34 23.9064C35.1003 23.9064 35.9922 23.0144 35.9922 21.9142C35.9922 20.8139 35.1003 19.922 34 19.922C32.8997 19.922 32.0078 20.8139 32.0078 21.9142C32.0078 23.0144 32.8997 23.9064 34 23.9064Z" fill="black"/>
</g>
<defs>
<clipPath id="clip0_5_83">
<rect width="68" height="68" fill="white"/>
</clipPath>
</defs>
</symbol>


</svg>